<?xml version="1.0" standalone="no"?>
<!DOCTYPE svg PUBLIC "-//W3C//DTD SVG 20010904//EN"
 "http://www.w3.org/TR/2001/REC-SVG-20010904/DTD/svg10.dtd">
<svg version="1.0" xmlns="http://www.w3.org/2000/svg"
 width="50.000000pt" height="50.000000pt" viewBox="0 0 50.000000 50.000000"
 preserveAspectRatio="xMidYMid meet">
<metadata>
Created by potrace 1.10, written by Peter Selinger 2001-2011
</metadata>
<g transform="translate(0.000000,50.000000) scale(0.050000,-0.050000)"
fill="#69e5e0" stroke="none">
<path d="M33 963 c-29 -31 -33 -94 -33 -466 0 -523 -14 -497 258 -497 208 0
262 19 262 91 0 59 -32 65 -50 9 -11 -35 -30 -40 -146 -40 -74 0 -152 -5 -174
-11 -87 -21 -92 2 -92 433 0 224 0 419 1 433 2 48 396 34 411 -15 18 -56 50
-50 50 9 0 72 -54 91 -266 91 -157 0 -193 -6 -221 -37z"/>
<path d="M809 638 c-8 -13 11 -43 43 -70 l58 -48 -357 2 c-358 1 -399 -4 -358
-45 15 -15 129 -19 366 -13 l345 9 -58 -46 c-43 -34 -51 -52 -34 -69 17 -17
44 -3 109 58 l86 81 -39 43 c-69 77 -146 123 -161 98z"/>
</g>
</svg>
